<svg width="325.8" height="202.72" viewBox="0 0 315 196" class="looka-1j8o68f"><defs id="SvgjsDefs1190"></defs><g id="SvgjsG1191" featurekey="rootContainer" transform="matrix(1,0,0,1,0,0)" fill="#ffffff"><rect xmlns="http://www.w3.org/2000/svg" width="315" height="196" rx="10" ry="10"></rect></g><g id="SvgjsG1192" featurekey="uKAeQw-0" transform="matrix(3.947830734654359,0,0,3.947830734654359,20.11685212043059,-2.1270134240132847)" fill="#111111"><path d="M20.82 21.4355 c-0.54688 -0.30599 -1.1296 -0.39063 -1.748 -0.25391 c-0.65755 0.14323 -1.1101 0.49805 -1.3574 1.0645 c-0.16927 0.38411 -0.2181 0.76172 -0.14648 1.1328 c0.084639 0.44271 0.3418 0.69661 0.77148 0.76172 c0.045576 0.0065136 0.10092 0.0097656 0.16603 0.0097656 c0.078125 0 0.14974 -0.0065136 0.21484 -0.019531 c0.18229 -0.039063 0.29948 -0.081377 0.35156 -0.12695 c-0.084639 0.14323 -0.27182 0.26042 -0.56153 0.35156 s-0.89355 0.021152 -1.8115 -0.20997 s-1.7871 -0.9196 -2.6074 -2.0654 c-0.70964 -1.0742 -1.2532 -2.4056 -1.6309 -3.9941 c-1.2695 -5.7161 -1.8652 -9.873 -1.7871 -12.471 l-7.2168 0 c-0.58594 4.3555 -1.3086 7.8223 -2.168 10.4 s-1.2988 3.9095 -1.3184 3.9941 l5.7129 0 c-0.3125 -0.89192 -0.45247 -1.9563 -0.41992 -3.1934 c1.2695 0.37109 2.3535 0.32227 3.252 -0.14648 l0.14648 0.72266 l0.16602 0.74219 c0.1237 0.56641 0.24414 1.071 0.36133 1.5137 c0.29297 1.1328 0.62825 2.1028 1.0059 2.9102 c0.95703 2.0964 2.3274 3.4603 4.1113 4.0918 c1.3347 0.46875 2.9036 0.55664 4.707 0.26367 c1.6731 -0.35156 2.6399 -1.1849 2.9004 -2.5 c0.11719 -0.61198 0.068359 -1.2109 -0.14648 -1.7969 c-0.20833 -0.54688 -0.52408 -0.94075 -0.94726 -1.1816 z M6.7578 9.609 c0.34505 1.1263 0.69988 2.4446 1.0645 3.9551 c-0.69011 0.21484 -1.4192 0.26367 -2.1875 0.14648 c0.25391 -1.2761 0.62825 -2.6433 1.123 -4.1016 z M23.5888671875 5.605 c0.084639 0.31901 0.19208 1.1264 0.32229 2.4219 c0.14974 1.4974 0.24414 2.8938 0.2832 4.1895 c-0.95052 -1.2239 -1.6146 -2.3145 -1.9922 -3.2715 c-0.33203 -0.82031 -0.57942 -1.9043 -0.74219 -3.252 l-5.4004 0 c0.57942 2.6953 0.70638 5.8821 0.38086 9.5605 c-0.097656 1.1523 -0.23763 2.2884 -0.41992 3.4082 c-0.058594 0.34505 -0.11719 0.67057 -0.17578 0.97655 c-0.019531 0.097656 -0.035811 0.18555 -0.048828 0.26367 l-0.0097656 0.039063 l0 0.029297 l-0.0097656 0.019531 l0 0.0097656 l4.9707 0 c-0.48177 -1.2239 -0.73242 -2.6367 -0.75195 -4.2383 c0 -0.51433 0.019531 -0.99932 0.058594 -1.4551 c0.019531 -0.16276 0.039063 -0.29623 0.058594 -0.4004 c0.013018 -0.097656 0.022783 -0.13997 0.029297 -0.12695 c-0.0065136 -0.0065136 0 -0.0032615 0.019531 0.0097561 l0.058594 0.058594 c0.071611 0.078125 0.15299 0.17253 0.24413 0.2832 c0.28646 0.34505 0.56966 0.74219 0.84961 1.1914 c0.39063 0.61198 0.73894 1.2663 1.0449 1.9629 c0.38411 0.87239 0.6901 1.7773 0.91796 2.7148 l5.3906 0 l-0.0097656 -0.0097656 l0 -0.019531 l-0.019531 -0.078125 c-0.013018 -0.097656 -0.029297 -0.20183 -0.048828 -0.3125 c-0.065107 -0.35156 -0.12695 -0.72591 -0.18555 -1.123 c-0.1888 -1.2695 -0.33203 -2.5195 -0.42969 -3.75 c-0.30599 -3.9388 -0.087891 -6.9727 0.6543 -9.1016 l-5.0391 0 z M31.386718875 20 c0.74219 -6.3802 0.73894 -11.143 -0.0097656 -14.287 c-0.0065136 -0.032549 -0.0097656 -0.058594 -0.0097656 -0.078125 l-0.0097656 -0.029297 l0 0 l5.4395 0 c-0.90495 4.6289 -1.2272 8.1511 -0.9668 10.566 s0.41016 3.6914 0.44922 3.8281 l-4.8926 0 z M46.4990296875 5.625 c0.16927 2.194 0.65757 4.1765 1.4648 5.9473 c0.16276 -0.23438 0.32878 -0.6543 0.49805 -1.2598 c0.14323 -0.53386 0.26042 -1.136 0.35156 -1.8066 c0.11067 -0.84636 0.17578 -1.8066 0.19531 -2.8809 l5.7813 0 c-0.51433 3.9714 -0.49805 7.5521 0.048828 10.742 c0.16927 0.99609 0.38411 1.8978 0.64453 2.7051 c0.045576 0.14323 0.091152 0.2767 0.13673 0.4004 c0.032549 0.10417 0.068359 0.20183 0.10742 0.29297 l0.039063 0.097656 c0.0065136 0.026045 0.016279 0.05209 0.029297 0.078135 l0.0097656 0.019531 l0.0097656 0.019531 l0 0.019531 l-4.9121 0 c0.17578 -1.5169 0.16602 -3.0566 -0.029297 -4.6191 c-0.058594 -0.51433 -0.13347 -0.97331 -0.22461 -1.377 c-0.039063 -0.15625 -0.071611 -0.27995 -0.097656 -0.37109 c-0.026045 -0.078125 -0.042324 -0.11067 -0.048838 -0.097656 c0.0065136 -0.013018 -0.0032521 0.019531 -0.029297 0.097656 l-0.019531 0.068359 l-0.029297 0.078125 c-0.026045 0.071611 -0.048828 0.13997 -0.068359 0.20508 c-0.065107 0.19531 -0.12695 0.39063 -0.18555 0.58594 c-0.078125 0.26042 -0.14974 0.52409 -0.21484 0.79102 c-0.18229 0.69661 -0.32878 1.3899 -0.43945 2.0801 c-0.14323 0.87891 -0.23112 1.7317 -0.26367 2.5586 l-3.125 0 c0 -2.3242 -0.41667 -4.5085 -1.25 -6.5527 c-0.37761 1.7188 -0.48178 3.3105 -0.31251 4.7754 c0.05208 0.46224 0.13346 0.88867 0.24413 1.2793 c0.013018 0.065107 0.029297 0.13021 0.048828 0.19532 c0.019531 0.05208 0.035811 0.10416 0.048828 0.15624 l0.019531 0.058594 l0.019531 0.039063 c0.0065136 0.026045 0.0097656 0.042324 0.0097656 0.048838 l-5.1074 0 c1.0547 -3.2097 1.5755 -6.0384 1.5625 -8.4863 c0 -0.91146 -0.078125 -1.9141 -0.23438 -3.0078 c-0.039063 -0.31901 -0.10742 -0.78451 -0.20508 -1.3965 l-0.10742 -0.70313 l-0.10742 -0.78125 l5.7422 0 z M64.589884375 16.2207 c-0.39063 -0.26042 -0.63479 -0.59894 -0.73244 -1.0156 c-0.091143 -0.39714 -0.042314 -0.778 0.14648 -1.1426 c0.19531 -0.37761 0.49153 -0.64779 0.88867 -0.81056 c0.091143 0.37109 0.28971 0.67708 0.59569 0.91797 c0.30599 0.24739 0.6543 0.37109 1.0449 0.37109 c0.46875 0 0.86914 -0.16602 1.2012 -0.49805 c0.32552 -0.33203 0.48828 -0.72917 0.48828 -1.1914 c0 -0.35808 -0.10091 -0.68359 -0.30273 -0.97656 c-0.20833 -0.33854 -0.60221 -0.5957 -1.1816 -0.77148 c-0.63802 -0.19531 -1.2858 -0.19856 -1.9434 -0.0097656 c-0.5013 0.14323 -0.99287 0.39389 -1.4746 0.75196 c0.11067 -1.0091 0.45247 -1.8489 1.0254 -2.5195 c0.57942 -0.67708 1.2532 -1.0156 2.0215 -1.0156 c0.54688 0 1.0547 0.18229 1.5234 0.54688 c0.45573 0.35156 0.82357 0.82683 1.1035 1.4258 c0.097656 -1.1067 0.23112 -2.2168 0.40039 -3.3301 c0.05208 -0.35156 0.10742 -0.68034 0.16602 -0.98633 c0.013018 -0.097656 0.029297 -0.18555 0.048828 -0.26367 c0 -0.026045 0.0032521 -0.05209 0.0097656 -0.078135 l0 -0.019531 l0.0097656 0 l-10.732 0 c0.70964 2.7083 0.95378 5.7813 0.73242 9.2188 c-0.071611 1.1653 -0.19531 2.3015 -0.37109 3.4082 c-0.058594 0.40364 -0.1237 0.78125 -0.19531 1.1328 c-0.05208 0.27344 -0.10091 0.48503 -0.14648 0.63477 l10.674 0 c-0.44922 -1.3021 -0.70313 -2.9622 -0.76172 -4.9805 c-0.29297 0.50781 -0.64778 0.90495 -1.0645 1.1914 c-0.4362 0.29948 -0.9017 0.44922 -1.3965 0.44922 c-0.73567 0 -1.3281 -0.14648 -1.7773 -0.43945 z"></path></g><g id="SvgjsG1193" featurekey="uKAeQw-1" transform="matrix(3.995834420660103,0,0,3.995834420660103,19.99980374768003,93.99859338531365)" fill="#111111"><path d="M4.8926 15.7715 c-0.14323 -0.31901 -0.24088 -0.70965 -0.29296 -1.1719 c-0.045576 -0.34505 -0.068359 -0.75195 -0.068359 -1.2207 c0 -1.4192 0.16602 -3.0827 0.49805 -4.9902 c0.10417 -0.60547 0.22461 -1.2239 0.36133 -1.8555 c0.026045 -0.11067 0.05209 -0.22461 0.078135 -0.3418 c0.013018 -0.071611 0.032549 -0.1595 0.058594 -0.26367 c0.039063 -0.18229 0.061846 -0.28972 0.068359 -0.32227 l-5.5957 0 c0.70964 2.8906 0.95378 6.0188 0.73242 9.3848 c-0.071611 1.1394 -0.19531 2.2429 -0.37109 3.3105 c-0.058594 0.38411 -0.1237 0.74544 -0.19531 1.084 c-0.05208 0.25391 -0.10091 0.45898 -0.14648 0.61523 l10.674 0 l0 -6.2598 c-0.29948 0.54036 -0.68686 1.084 -1.1621 1.6309 c-0.41667 0.47526 -0.83334 0.84636 -1.25 1.1133 c-0.52083 0.33854 -1.0254 0.50781 -1.5137 0.50781 c-0.89844 0 -1.5234 -0.4069 -1.875 -1.2207 z M18.1201453125 15.4297 c-0.41016 -0.69011 -0.61522 -1.5625 -0.61522 -2.6172 c0 -0.85286 0.17903 -1.6438 0.53711 -2.373 c0.42969 -0.88542 0.90169 -1.3672 1.416 -1.4453 c0.29297 -0.045576 0.58269 0.035801 0.86914 0.24413 c0.26692 0.20183 0.49479 0.48503 0.68358 0.84961 c0.22136 0.42317 0.39389 0.88216 0.51759 1.377 c0.11067 0.44922 0.16602 0.89844 0.16602 1.3477 c0 1.0547 -0.20508 1.9271 -0.61523 2.6172 c-0.39714 0.67058 -0.88867 1.0059 -1.4746 1.0059 c-0.59245 0 -1.0872 -0.33528 -1.4844 -1.0059 z M23.608445312500002 7.49 c-0.55339 -0.74219 -1.2109 -1.3118 -1.9727 -1.709 c-0.82031 -0.42969 -1.6602 -0.5957 -2.5195 -0.49805 c-1.4778 0.16276 -2.8418 1.1394 -4.0918 2.9297 c-1.0286 1.4648 -1.543 3.0566 -1.543 4.7754 c0 2.1224 0.58919 3.877 1.7676 5.2637 c1.1589 1.3542 2.5879 2.0313 4.2871 2.0313 s3.125 -0.67708 4.2773 -2.0313 c1.1784 -1.3867 1.7676 -3.1413 1.7676 -5.2637 c0 -0.91146 -0.1595 -1.8196 -0.47852 -2.7246 c-0.35156 -0.99609 -0.84961 -1.9206 -1.4941 -2.7734 z M34.111315625 5.605 c0.3125 2.207 0.055342 5.0065 -0.77148 8.3984 c-1.0481 -3.4636 -1.5495 -6.263 -1.5039 -8.3984 l-5.4199 0 c0.013018 0.05208 0.54199 1.5788 1.5869 4.5801 s1.4274 6.2728 1.1475 9.8145 l7.6465 0 c-0.13672 -3.3528 0.27995 -6.5771 1.25 -9.6729 s1.4616 -4.6696 1.4746 -4.7217 l-5.4102 0 z M47.7100015625 16.2207 c-0.39063 -0.26042 -0.63479 -0.59894 -0.73244 -1.0156 c-0.091143 -0.39714 -0.042314 -0.778 0.14648 -1.1426 c0.19531 -0.37761 0.49153 -0.64779 0.88867 -0.81056 c0.091143 0.37109 0.28971 0.67708 0.59569 0.91797 c0.30599 0.24739 0.6543 0.37109 1.0449 0.37109 c0.46875 0 0.86914 -0.16602 1.2012 -0.49805 c0.32552 -0.33203 0.48828 -0.72917 0.48828 -1.1914 c0 -0.35808 -0.10091 -0.68359 -0.30273 -0.97656 c-0.20833 -0.33854 -0.60221 -0.5957 -1.1816 -0.77148 c-0.63802 -0.19531 -1.2858 -0.19856 -1.9434 -0.0097656 c-0.5013 0.14323 -0.99287 0.39389 -1.4746 0.75196 c0.11067 -1.0091 0.45247 -1.8489 1.0254 -2.5195 c0.57942 -0.67708 1.2532 -1.0156 2.0215 -1.0156 c0.54688 0 1.0547 0.18229 1.5234 0.54688 c0.45573 0.35156 0.82357 0.82683 1.1035 1.4258 c0.097656 -1.1067 0.23112 -2.2168 0.40039 -3.3301 c0.05208 -0.35156 0.10742 -0.68034 0.16602 -0.98633 c0.013018 -0.097656 0.029297 -0.18555 0.048828 -0.26367 c0 -0.026045 0.0032521 -0.05209 0.0097656 -0.078135 l0 -0.019531 l0.0097656 0 l-10.732 0 c0.70964 2.7083 0.95378 5.7813 0.73242 9.2188 c-0.071611 1.1653 -0.19531 2.3015 -0.37109 3.4082 c-0.058594 0.40364 -0.1237 0.78125 -0.19531 1.1328 c-0.05208 0.27344 -0.10091 0.48503 -0.14648 0.63477 l10.674 0 c-0.44922 -1.3021 -0.70313 -2.9622 -0.76172 -4.9805 c-0.29297 0.50781 -0.64778 0.90495 -1.0645 1.1914 c-0.4362 0.29948 -0.9017 0.44922 -1.3965 0.44922 c-0.73567 0 -1.3281 -0.14648 -1.7773 -0.43945 z M60.341778125 11.2207 c-0.071611 -0.80729 -0.11068 -1.6504 -0.1172 -2.5293 c0.78125 -0.039063 1.4421 0.026045 1.9824 0.19531 c0.67058 0.21484 0.97979 0.55664 0.92774 1.0254 c-0.1237 1.1133 -1.0547 1.5495 -2.793 1.3086 z M68.633078125 15.976600000000001 c-0.13672 0.20833 -0.30919 0.39388 -0.51752 0.55664 c-0.41667 0.33203 -0.81055 0.39388 -1.1816 0.18555 c-0.20183 -0.10417 -0.38412 -0.27995 -0.54688 -0.52734 c-0.1237 -0.17578 -0.25065 -0.4069 -0.38086 -0.69336 c0 -0.0065136 -0.045576 -0.11394 -0.13672 -0.32227 l-0.25391 -0.58594 l-0.27344 -0.57617 c-0.16276 -0.33203 -0.34831 -0.63477 -0.55664 -0.9082 c0.59245 -0.1888 0.99609 -0.33203 1.2109 -0.42969 c0.59896 -0.26042 1.0481 -0.67383 1.3477 -1.2402 c0.26042 -0.48177 0.39063 -1.0156 0.39063 -1.6016 c0 -0.13672 -0.0065136 -0.27669 -0.019531 -0.41992 c-0.019531 -0.20183 -0.05208 -0.40039 -0.097656 -0.5957 c-0.11719 -0.53386 -0.31901 -1.0091 -0.60547 -1.4258 c-0.82683 -1.2044 -2.2493 -1.8066 -4.2676 -1.8066 l-6.875 0 c0.70964 4.8177 0.70313 9.5638 -0.019531 14.238 c-0.0065136 0.032549 -0.013027 0.061846 -0.019541 0.087891 l0 0.029297 l5.7813 0 c-0.45573 -1.8815 -0.75521 -3.8835 -0.89845 -6.0059 l0.18555 0.058594 c0.60547 0.24739 1.0449 0.68033 1.3184 1.2988 c0.10417 0.24089 0.19531 0.52734 0.27344 0.85938 l0.087891 0.44922 l0.078125 0.43945 l0.068359 0.3418 l0.068359 0.3418 c0.05208 0.25391 0.10742 0.47852 0.16602 0.67383 c0.15625 0.48828 0.36458 0.88542 0.625 1.1914 c0.70313 0.83984 1.5788 1.1882 2.627 1.0449 c0.5013 -0.071611 0.95377 -0.26041 1.3574 -0.5664 c0.40364 -0.3125 0.71614 -0.70964 0.9375 -1.1914 c0.071611 -0.16927 0.13346 -0.3483 0.18554 -0.5371 c0.16276 -0.61849 0.17253 -1.2891 0.029297 -2.0117 z"></path></g></svg>